<mxfile host="app.diagrams.net" modified="2024-07-04T03:50:03.502Z" agent="Mozilla/5.0 (Windows NT 10.0; Win64; x64) AppleWebKit/537.36 (KHTML, like Gecko) Chrome/126.0.0.0 Safari/537.36 Edg/126.0.0.0" etag="o0EqOnm1agfH_9TppIsR" version="24.6.4" type="github">
  <diagram name="第 1 页" id="LLOimiUJxIWVnBvx53SA">
    <mxGraphModel dx="1226" dy="669" grid="1" gridSize="10" guides="1" tooltips="1" connect="1" arrows="1" fold="1" page="1" pageScale="1" pageWidth="827" pageHeight="1169" math="0" shadow="0">
      <root>
        <mxCell id="0" />
        <mxCell id="1" parent="0" />
        <mxCell id="FIMOuDOS6CexBFZZuyrf-21" style="edgeStyle=orthogonalEdgeStyle;rounded=0;orthogonalLoop=1;jettySize=auto;html=1;" parent="1" source="FIMOuDOS6CexBFZZuyrf-1" target="FIMOuDOS6CexBFZZuyrf-19" edge="1">
          <mxGeometry relative="1" as="geometry">
            <Array as="points">
              <mxPoint x="160" y="435" />
            </Array>
          </mxGeometry>
        </mxCell>
        <mxCell id="FIMOuDOS6CexBFZZuyrf-23" style="edgeStyle=orthogonalEdgeStyle;rounded=0;orthogonalLoop=1;jettySize=auto;html=1;" parent="1" source="FIMOuDOS6CexBFZZuyrf-1" target="FIMOuDOS6CexBFZZuyrf-20" edge="1">
          <mxGeometry relative="1" as="geometry">
            <Array as="points">
              <mxPoint x="160" y="610" />
            </Array>
          </mxGeometry>
        </mxCell>
        <mxCell id="FIMOuDOS6CexBFZZuyrf-28" style="edgeStyle=orthogonalEdgeStyle;rounded=0;orthogonalLoop=1;jettySize=auto;html=1;" parent="1" source="FIMOuDOS6CexBFZZuyrf-1" target="FIMOuDOS6CexBFZZuyrf-3" edge="1">
          <mxGeometry relative="1" as="geometry">
            <Array as="points">
              <mxPoint x="160" y="725" />
            </Array>
          </mxGeometry>
        </mxCell>
        <mxCell id="FIMOuDOS6CexBFZZuyrf-32" style="edgeStyle=orthogonalEdgeStyle;rounded=0;orthogonalLoop=1;jettySize=auto;html=1;" parent="1" source="FIMOuDOS6CexBFZZuyrf-1" target="FIMOuDOS6CexBFZZuyrf-31" edge="1">
          <mxGeometry relative="1" as="geometry">
            <Array as="points">
              <mxPoint x="160" y="325" />
            </Array>
          </mxGeometry>
        </mxCell>
        <mxCell id="FIMOuDOS6CexBFZZuyrf-45" style="edgeStyle=orthogonalEdgeStyle;rounded=0;orthogonalLoop=1;jettySize=auto;html=1;" parent="1" source="FIMOuDOS6CexBFZZuyrf-1" target="FIMOuDOS6CexBFZZuyrf-41" edge="1">
          <mxGeometry relative="1" as="geometry">
            <Array as="points">
              <mxPoint x="160" y="235" />
            </Array>
          </mxGeometry>
        </mxCell>
        <mxCell id="FIMOuDOS6CexBFZZuyrf-1" value="用户" style="rounded=0;whiteSpace=wrap;html=1;fillColor=#f8cecc;strokeColor=#b85450;" parent="1" vertex="1">
          <mxGeometry x="100" y="490" width="110" height="60" as="geometry" />
        </mxCell>
        <mxCell id="FIMOuDOS6CexBFZZuyrf-30" value="" style="edgeStyle=orthogonalEdgeStyle;rounded=0;orthogonalLoop=1;jettySize=auto;html=1;" parent="1" source="FIMOuDOS6CexBFZZuyrf-3" target="FIMOuDOS6CexBFZZuyrf-15" edge="1">
          <mxGeometry relative="1" as="geometry">
            <mxPoint x="610" y="725" as="targetPoint" />
          </mxGeometry>
        </mxCell>
        <mxCell id="FIMOuDOS6CexBFZZuyrf-3" value="评论" style="rhombus;whiteSpace=wrap;html=1;fillColor=#dae8fc;strokeColor=#6c8ebf;" parent="1" vertex="1">
          <mxGeometry x="420" y="700" width="100" height="50" as="geometry" />
        </mxCell>
        <mxCell id="FIMOuDOS6CexBFZZuyrf-18" style="edgeStyle=orthogonalEdgeStyle;rounded=0;orthogonalLoop=1;jettySize=auto;html=1;" parent="1" source="FIMOuDOS6CexBFZZuyrf-11" target="FIMOuDOS6CexBFZZuyrf-17" edge="1">
          <mxGeometry relative="1" as="geometry">
            <Array as="points">
              <mxPoint x="440" y="625" />
            </Array>
          </mxGeometry>
        </mxCell>
        <mxCell id="FIMOuDOS6CexBFZZuyrf-38" style="edgeStyle=orthogonalEdgeStyle;rounded=0;orthogonalLoop=1;jettySize=auto;html=1;" parent="1" source="FIMOuDOS6CexBFZZuyrf-11" target="FIMOuDOS6CexBFZZuyrf-37" edge="1">
          <mxGeometry relative="1" as="geometry">
            <Array as="points">
              <mxPoint x="440" y="300" />
            </Array>
          </mxGeometry>
        </mxCell>
        <mxCell id="FIMOuDOS6CexBFZZuyrf-11" value="社团" style="rounded=0;whiteSpace=wrap;html=1;fillColor=#f8cecc;strokeColor=#b85450;" parent="1" vertex="1">
          <mxGeometry x="350" y="495" width="110" height="60" as="geometry" />
        </mxCell>
        <mxCell id="FIMOuDOS6CexBFZZuyrf-15" value="动态" style="rounded=0;whiteSpace=wrap;html=1;fillColor=#f8cecc;strokeColor=#b85450;" parent="1" vertex="1">
          <mxGeometry x="680" y="495" width="110" height="60" as="geometry" />
        </mxCell>
        <mxCell id="FIMOuDOS6CexBFZZuyrf-25" style="edgeStyle=orthogonalEdgeStyle;rounded=0;orthogonalLoop=1;jettySize=auto;html=1;" parent="1" source="FIMOuDOS6CexBFZZuyrf-17" target="FIMOuDOS6CexBFZZuyrf-15" edge="1">
          <mxGeometry relative="1" as="geometry" />
        </mxCell>
        <mxCell id="FIMOuDOS6CexBFZZuyrf-17" value="拥有" style="rhombus;whiteSpace=wrap;html=1;fillColor=#dae8fc;strokeColor=#6c8ebf;" parent="1" vertex="1">
          <mxGeometry x="550" y="600" width="100" height="50" as="geometry" />
        </mxCell>
        <mxCell id="FIMOuDOS6CexBFZZuyrf-22" style="edgeStyle=orthogonalEdgeStyle;rounded=0;orthogonalLoop=1;jettySize=auto;html=1;" parent="1" source="FIMOuDOS6CexBFZZuyrf-19" target="FIMOuDOS6CexBFZZuyrf-11" edge="1">
          <mxGeometry relative="1" as="geometry">
            <Array as="points">
              <mxPoint x="360" y="435" />
            </Array>
          </mxGeometry>
        </mxCell>
        <mxCell id="FIMOuDOS6CexBFZZuyrf-19" value="收藏" style="rhombus;whiteSpace=wrap;html=1;fillColor=#dae8fc;strokeColor=#6c8ebf;" parent="1" vertex="1">
          <mxGeometry x="220" y="410" width="100" height="50" as="geometry" />
        </mxCell>
        <mxCell id="FIMOuDOS6CexBFZZuyrf-24" style="edgeStyle=orthogonalEdgeStyle;rounded=0;orthogonalLoop=1;jettySize=auto;html=1;" parent="1" source="FIMOuDOS6CexBFZZuyrf-20" target="FIMOuDOS6CexBFZZuyrf-11" edge="1">
          <mxGeometry relative="1" as="geometry">
            <Array as="points">
              <mxPoint x="360" y="610" />
            </Array>
          </mxGeometry>
        </mxCell>
        <mxCell id="FIMOuDOS6CexBFZZuyrf-20" value="参与" style="rhombus;whiteSpace=wrap;html=1;fillColor=#dae8fc;strokeColor=#6c8ebf;" parent="1" vertex="1">
          <mxGeometry x="230" y="585" width="100" height="50" as="geometry" />
        </mxCell>
        <mxCell id="FIMOuDOS6CexBFZZuyrf-33" style="edgeStyle=orthogonalEdgeStyle;rounded=0;orthogonalLoop=1;jettySize=auto;html=1;" parent="1" source="FIMOuDOS6CexBFZZuyrf-31" target="FIMOuDOS6CexBFZZuyrf-11" edge="1">
          <mxGeometry relative="1" as="geometry">
            <Array as="points">
              <mxPoint x="360" y="325" />
            </Array>
          </mxGeometry>
        </mxCell>
        <mxCell id="FIMOuDOS6CexBFZZuyrf-31" value="申请" style="rhombus;whiteSpace=wrap;html=1;fillColor=#dae8fc;strokeColor=#6c8ebf;" parent="1" vertex="1">
          <mxGeometry x="220" y="300" width="100" height="50" as="geometry" />
        </mxCell>
        <mxCell id="FIMOuDOS6CexBFZZuyrf-34" value="活动" style="rounded=0;whiteSpace=wrap;html=1;fillColor=#f8cecc;strokeColor=#b85450;" parent="1" vertex="1">
          <mxGeometry x="680" y="270" width="110" height="60" as="geometry" />
        </mxCell>
        <mxCell id="FIMOuDOS6CexBFZZuyrf-39" style="edgeStyle=orthogonalEdgeStyle;rounded=0;orthogonalLoop=1;jettySize=auto;html=1;" parent="1" source="FIMOuDOS6CexBFZZuyrf-37" target="FIMOuDOS6CexBFZZuyrf-34" edge="1">
          <mxGeometry relative="1" as="geometry" />
        </mxCell>
        <mxCell id="FIMOuDOS6CexBFZZuyrf-37" value="发布" style="rhombus;whiteSpace=wrap;html=1;fillColor=#dae8fc;strokeColor=#6c8ebf;" parent="1" vertex="1">
          <mxGeometry x="510" y="275" width="100" height="50" as="geometry" />
        </mxCell>
        <mxCell id="FIMOuDOS6CexBFZZuyrf-46" style="edgeStyle=orthogonalEdgeStyle;rounded=0;orthogonalLoop=1;jettySize=auto;html=1;" parent="1" source="FIMOuDOS6CexBFZZuyrf-41" target="FIMOuDOS6CexBFZZuyrf-11" edge="1">
          <mxGeometry relative="1" as="geometry">
            <Array as="points">
              <mxPoint x="360" y="235" />
            </Array>
          </mxGeometry>
        </mxCell>
        <mxCell id="FIMOuDOS6CexBFZZuyrf-41" value="消息" style="rhombus;whiteSpace=wrap;html=1;fillColor=#dae8fc;strokeColor=#6c8ebf;" parent="1" vertex="1">
          <mxGeometry x="220" y="210" width="100" height="50" as="geometry" />
        </mxCell>
      </root>
    </mxGraphModel>
  </diagram>
</mxfile>
